<?xml version="1.0" encoding="UTF-8" standalone="no"?>
<!-- Generator: Gravit.io -->
<svg xmlns="http://www.w3.org/2000/svg" xmlns:xlink="http://www.w3.org/1999/xlink" style="isolation:isolate" viewBox="0 0 128 128" width="128pt" height="128pt"><defs><clipPath id="_clipPath_DwnsBU1YtbMZt82xfwn8GDud0l7MoEwm"><rect width="128" height="128"/></clipPath></defs><g clip-path="url(#_clipPath_DwnsBU1YtbMZt82xfwn8GDud0l7MoEwm)"><g><g><path d=" M 114.027 25.013 C 106.264 29.844 97.121 35.364 92.119 41.229 C 91.084 42.437 90.049 43.817 89.186 45.024 C 89.186 47.784 87.116 50.027 84.528 50.372 C 84.356 52.442 84.183 54.685 84.183 56.582 C 83.493 66.243 84.701 79.526 85.563 89.358 C 85.563 92.291 83.148 94.706 80.216 94.706 C 77.283 94.706 74.868 92.636 74.868 89.704 C 76.42 84.011 77.973 77.111 79.181 70.555 C 76.593 67.795 75.213 66.933 69.693 68.313 L 81.423 50.027 C 81.251 49.854 81.078 49.854 80.906 49.682 C 78.663 52.097 76.248 54.685 73.833 57.1 C 63.655 67.795 45.887 91.429 45.887 91.429 C 45.887 91.429 42.782 95.396 39.849 95.396 C 36.916 95.396 34.501 92.981 34.501 90.049 C 34.501 88.151 35.881 85.908 38.814 83.493 C 48.992 75.903 57.272 69.175 63.655 63.655 C 64.518 59.86 65.208 57.617 57.617 54.685 L 78.836 47.612 C 78.663 47.439 78.663 47.267 78.491 46.922 C 72.625 47.612 66.588 48.819 60.722 49.854 C 55.03 51.062 45.542 53.477 39.849 54.167 C 36.916 54.167 34.501 51.752 34.501 48.819 C 34.501 45.887 36.916 43.472 39.849 43.472 C 44.679 43.989 51.925 44.507 61.757 45.197 C 69.52 45.369 75.04 45.369 78.491 44.852 C 78.836 42.092 81.078 40.022 83.838 40.022 C 90.739 34.156 98.674 23.633 104.712 15.181 C 93.671 5.693 79.526 0 64 0 C 28.981 0 0.69 28.636 0.69 64 C 0.69 99.364 28.981 128 64 128 C 98.846 128 127.31 99.364 127.31 64 C 127.137 49.337 122.307 35.881 114.027 25.013 Z " fill-rule="evenodd" fill="rgb(0,203,91)"/></g></g></g></svg>