<?xml version="1.0" encoding="utf-8"?>
<!-- Generator: Adobe Illustrator 21.0.2, SVG Export Plug-In . SVG Version: 6.00 Build 0)  -->
<svg version="1.1" id="Layer_1" xmlns="http://www.w3.org/2000/svg" xmlns:xlink="http://www.w3.org/1999/xlink" x="0px" y="0px"
	 viewBox="0 0 300 82" style="enable-background:new 0 0 300 82;" xml:space="preserve">
<style type="text/css">
	.st0{fill-rule:evenodd;clip-rule:evenodd;fill:#FFFFFF;}
	.st1{fill-rule:evenodd;clip-rule:evenodd;fill:#888A8C;}
</style>
<ellipse class="st0" cx="36.7" cy="39.1" rx="36.7" ry="37.1"/>
<g>
	<defs>
		<path id="SVGID_39_" d="M87.8,18.4h5.6v33.7c0,3.7,1.4,4.4,3.1,4.4c0.5,0,1-0.1,1-0.1v5.3c0,0-0.9,0.1-1.8,0.1
			c-3.2,0-7.8-0.9-7.8-8.7V18.4L87.8,18.4z"/>
	</defs>
	<use xlink:href="#SVGID_39_"  style="overflow:visible;fill-rule:evenodd;clip-rule:evenodd;fill:#888A8C;"/>
	<clipPath id="SVGID_1_">
		<use xlink:href="#SVGID_39_"  style="overflow:visible;"/>
	</clipPath>
</g>
<g>
	<defs>
		<path id="SVGID_41_" d="M115.9,29.9c8.8,0,13.4,6.6,13.4,14.7c0,0.8-0.2,2.6-0.2,2.6h-22.6c0.3,6.9,5.2,10.3,10.7,10.3
			c5.3,0,9.2-3.7,9.2-3.7l2.5,4.4c0,0-4.6,4.5-12,4.5c-9.8,0-16.4-7.1-16.4-16.4C100.3,36.4,107,29.9,115.9,29.9L115.9,29.9
			L115.9,29.9z M123.2,42.7c-0.2-5.4-3.5-8-7.5-8c-4.5,0-8.2,2.8-9.1,8H123.2L123.2,42.7z"/>
	</defs>
	<use xlink:href="#SVGID_41_"  style="overflow:visible;fill-rule:evenodd;clip-rule:evenodd;fill:#888A8C;"/>
	<clipPath id="SVGID_2_">
		<use xlink:href="#SVGID_41_"  style="overflow:visible;"/>
	</clipPath>
</g>
<g>
	<defs>
		<path id="SVGID_43_" d="M150,42.4h1.4v-0.6c0-5.1-2.9-6.9-6.8-6.9c-4.8,0-8.7,3-8.7,3l-2.5-4.4c0,0,4.5-3.7,11.6-3.7
			c7.9,0,12.3,4.3,12.3,12.3V62h-5.5v-3c0-1.4,0.1-2.5,0.1-2.5h-0.1c0,0-2.5,6.2-10,6.2c-5.3,0-10.6-3.3-10.6-9.5
			C131.2,42.9,144.7,42.4,150,42.4 M143.1,57.9c5,0,8.3-5.3,8.3-10v-1h-1.5c-4.5,0-12.6,0.3-12.6,5.9
			C137.2,55.4,139.2,57.9,143.1,57.9"/>
	</defs>
	<use xlink:href="#SVGID_43_"  style="overflow:visible;fill-rule:evenodd;clip-rule:evenodd;fill:#888A8C;"/>
	<clipPath id="SVGID_3_">
		<use xlink:href="#SVGID_43_"  style="overflow:visible;"/>
	</clipPath>
</g>
<g>
	<defs>
		<path id="SVGID_45_" d="M163.1,30.7h5.4v2.6c0,1.2-0.1,2.2-0.1,2.2h0.1c0,0,2.6-5.6,10.2-5.6c8.2,0,13.4,6.5,13.4,16
			c0,9.7-5.8,16-13.8,16c-6.7,0-9.3-5-9.3-5h-0.1c0,0,0.1,1.1,0.1,2.7v13.7h-5.8V30.7L163.1,30.7z M177.3,57c4.8,0,8.8-4,8.8-10.9
			c0-6.7-3.5-10.9-8.6-10.9c-4.6,0-8.8,3.2-8.8,11C168.7,51.5,171.7,57,177.3,57L177.3,57L177.3,57z"/>
	</defs>
	<use xlink:href="#SVGID_45_"  style="overflow:visible;fill-rule:evenodd;clip-rule:evenodd;fill:#888A8C;"/>
	<clipPath id="SVGID_4_">
		<use xlink:href="#SVGID_45_"  style="overflow:visible;"/>
	</clipPath>
</g>
<g>
	<defs>
		<path id="SVGID_47_" d="M197.9,36.1h-4v-4.8h4v-1.5c0-10.2,8-11.5,12-11.5c1.4,0,2.3,0.2,2.3,0.2v5.1c0,0-0.6-0.1-1.6-0.1
			c-2.3,0-6.7,0.7-6.7,6.5v1.3h7.6v4.8H204v25.7h-6.1V36.1L197.9,36.1z"/>
	</defs>
	<use xlink:href="#SVGID_47_"  style="overflow:visible;fill-rule:evenodd;clip-rule:evenodd;fill:#888A8C;"/>
	<clipPath id="SVGID_5_">
		<use xlink:href="#SVGID_47_"  style="overflow:visible;"/>
	</clipPath>
</g>
<g>
	<defs>
		<path id="SVGID_75_" d="M65.7,16.5c-4.5,2.8-9.8,6-12.7,9.4c-0.6,0.7-1.2,1.5-1.7,2.2c0,1.6-1.2,2.9-2.7,3.1
			c-0.1,1.2-0.2,2.5-0.2,3.6c-0.4,5.6,0.3,13.3,0.8,19c0,1.7-1.4,3.1-3.1,3.1S43,55.7,43,54c0.9-3.3,1.8-7.3,2.5-11.1
			c-1.5-1.6-2.3-2.1-5.5-1.3l6.8-10.6c-0.1-0.1-0.2-0.1-0.3-0.2c-1.3,1.4-2.7,2.9-4.1,4.3C36.5,41.3,26.2,55,26.2,55
			s-1.8,2.3-3.5,2.3c-1.7,0-3.1-1.4-3.1-3.1c0-1.1,0.8-2.4,2.5-3.8c5.9-4.4,10.7-8.3,14.4-11.5c0.5-2.2,0.9-3.5-3.5-5.2l12.3-4.1
			c-0.1-0.1-0.1-0.2-0.2-0.4c-3.4,0.4-6.9,1.1-10.3,1.7c-3.3,0.7-8.8,2.1-12.1,2.5c-1.7,0-3.1-1.4-3.1-3.1c0-1.7,1.4-3.1,3.1-3.1
			c2.8,0.3,7,0.6,12.7,1c4.5,0.1,7.7,0.1,9.7-0.2c0.2-1.6,1.5-2.8,3.1-2.8c4-3.4,8.6-9.5,12.1-14.4C53.9,5.3,45.7,2,36.7,2
			C16.4,2,0,18.6,0,39.1c0,20.5,16.4,37.1,36.7,37.1c20.2,0,36.7-16.6,36.7-37.1C73.3,30.6,70.5,22.8,65.7,16.5"/>
	</defs>
	<use xlink:href="#SVGID_75_"  style="overflow:visible;fill-rule:evenodd;clip-rule:evenodd;fill:#00CB5B;"/>
	<clipPath id="SVGID_6_">
		<use xlink:href="#SVGID_75_"  style="overflow:visible;"/>
	</clipPath>
</g>
<g>
	<path class="st1" d="M238.2,30.3c-3.7,0-7.4,0-7.8,0c-5,0.1-8.7,3.6-10.2,8.1h-0.1c0,0,0.1-1,0.1-2.3v-5.4h-6v31.1h6.2V49.1
		c0-1.9,0.2-3.8,0.8-5.6c1.5-4.6,5.1-7.3,9-7.3c0.3,0,1.4,0,2.9,0C234.3,33.8,236.1,31.9,238.2,30.3z"/>
</g>
<g>
	<defs>
		<path id="SVGID_51_" d="M250.4,29c9.3,0,16.9,6.9,16.9,16.3c0,9.5-7.5,16.5-16.9,16.5c-9.3,0-16.9-6.9-16.9-16.5
			C233.5,35.8,241,29,250.4,29 M250.4,56.6c5.9,0,10.8-4.7,10.8-11.3c0-6.5-4.8-11.1-10.8-11.1c-5.9,0-10.8,4.6-10.8,11.1
			C239.6,51.9,244.5,56.6,250.4,56.6"/>
	</defs>
	<use xlink:href="#SVGID_51_"  style="overflow:visible;fill-rule:evenodd;clip-rule:evenodd;fill:#888A8C;"/>
	<clipPath id="SVGID_7_">
		<use xlink:href="#SVGID_51_"  style="overflow:visible;"/>
	</clipPath>
</g>
<g>
	<defs>
		<path id="SVGID_53_" d="M282.4,70.1c5.4,0,9.8-2.4,9.8-8.8v-2.3c0-1,0.1-2,0.1-2h-0.1c-1.8,3.1-4.7,4.9-9.2,4.9
			c-8.6,0-13.8-7-13.8-16.1c0-9,4.9-15.8,13.5-15.8c7.5,0,9.7,4.7,9.7,4.7h0.1c0,0-0.1-0.4-0.1-1v-2.9h5.7v30.2
			c0,10.4-7.8,14.4-15.6,14.4c-3.7,0-7.6-1.1-10.6-2.6l2-4.7C274,67.9,277.8,70.1,282.4,70.1 M292.3,45.8c0-8.2-3.9-10.6-8.7-10.6
			c-5.4,0-8.4,4-8.4,10.4c0,6.5,3.4,11,9,11C288.4,56.6,292.3,54,292.3,45.8"/>
	</defs>
	<use xlink:href="#SVGID_53_"  style="overflow:visible;fill-rule:evenodd;clip-rule:evenodd;fill:#888A8C;"/>
	<clipPath id="SVGID_8_">
		<use xlink:href="#SVGID_53_"  style="overflow:visible;"/>
	</clipPath>
</g>
</svg>
